<?xml version="1.0" encoding="utf-8"?>
<!-- Generator: Adobe Illustrator 17.0.0, SVG Export Plug-In . SVG Version: 6.00 Build 0)  -->
<!DOCTYPE svg PUBLIC "-//W3C//DTD SVG 1.1//EN" "http://www.w3.org/Graphics/SVG/1.1/DTD/svg11.dtd">
<svg version="1.1" id="Layer_1" xmlns="http://www.w3.org/2000/svg" xmlns:xlink="http://www.w3.org/1999/xlink" x="0px" y="0px"
	 width="485px" height="135px" viewBox="0 0 485 135" enable-background="new 0 0 485 135" xml:space="preserve">
<g>
	<path fill="#FFFFFF" d="M42.698,74.959c15.52,13.2,3.76,22,3.76,22c-12,9.6-21.12-11.601-21.521-12.64
		c2.08,13.76-8.88,14.72-8.88,14.72c-10.72,1.36-13.521-9.6-13.521-9.6c-5.36-18.561-0.56-32.001-0.56-32.001
		c4.56-17.521,22.96-15.76,22.96-15.76c18.801,0.08,21.681,15.2,21.681,15.2C48.698,68.319,42.698,74.959,42.698,74.959z
		 M21.737,65.759c0.16,2.24,1.44,2.96,3.2,2.96c1.76,0,3.12-1.12,3.12-2.96c0-1.68-1.12-3.36-3.12-3.36
		C23.097,62.398,21.577,64.079,21.737,65.759z"/>
	<path fill="#FFFFFF" d="M84.625,98.159c-4.32,1.76-8.08,1.76-8.08,1.76c-23.36,0-23.36-20.32-23.36-20.32
		c0-24.721,23.36-22.48,23.36-22.48c20.641,0,20.641,20.24,20.641,20.24c0,4.96-0.96,8.8-2.48,11.76
		C91.345,95.359,84.625,98.159,84.625,98.159z M72.865,79.839c0.16,2.24,1.44,2.96,3.2,2.96s3.12-1.12,3.12-2.96
		c0-1.68-1.12-3.36-3.12-3.36C74.225,76.479,72.705,78.159,72.865,79.839z"/>
	<path fill="#FFFFFF" d="M122.497,67.679c0.08,3.68-0.16,9.6,2.56,9.6c2.48,0,2.4-2.88,2.48-9.6c0.08-10.48,9.121-10.48,9.121-10.48
		c10.56-0.56,11.84,8.72,11.84,8.72c2.32,11.121-2.4,21.601-2.4,21.601s-4.56,12.641-20.24,12.24c-16.561-0.4-20.96-8.32-20.96-8.32
		c-6.561-9.601-3.12-25.281-3.12-25.281c2.4-10.64,12.16-8.88,12.16-8.88S122.257,57.838,122.497,67.679z"/>
	<path fill="#FFFFFF" d="M195.769,98.799c0.08,0-13.121,1.84-13.68-11.04c0,0-0.72-11.28-2.8-11.28c0.64,7.76,0.08,11.84,0.08,11.84
		s-0.88,10.56-11.92,10.72c-10.48,0.16-12.16-11.121-12.16-11.121s-1.92-7.12-0.96-18.4c0,0,0.96-12,11.68-12.64
		c9.36-0.56,11.6,3.36,13.04,5.84c0,0,25.681-15.601,28.001,17.28C207.049,79.999,208.489,96.56,195.769,98.799z"/>
	<path fill="#FFFFFF" d="M247.864,96.56c-8.24,4.24-20.96,4.88-28.641,0.88c0,0-6.8-3.44-8.64-10.64
		c-1.68-6.561-1.44-16.801,4.88-22.801c9.84-9.28,23.041-4.48,23.041-4.48s-3.92-21.521,9.76-21.521
		c12.081,0,13.121,14.72,13.121,14.72s1.84,14.88-1.92,28.241c6.24,2.96,5.92,10.96,2.08,15.041
		C256.104,101.759,247.864,96.479,247.864,96.56z M234.903,79.519c0.16,2.24,1.44,2.96,3.2,2.96c1.76,0,3.12-1.12,3.12-2.96
		c0-1.68-1.12-3.36-3.12-3.36C236.264,76.159,234.744,77.839,234.903,79.519z"/>
	<path fill="#FFFFFF" d="M269.87,53.599c0,0,0.96-15.841,12.561-15.841c0,0,10.96-0.64,12.4,17.041
		c1.36,16.88-0.4,32.641-0.4,32.641s-0.72,12.4-12.72,12.081c-11.2-0.32-12.24-17.28-12.24-17.28
		C268.03,70.159,269.87,53.599,269.87,53.599z"/>
	<path fill="#FFFFFF" d="M314.166,99.6c-9.041,0.32-11.36-6.96-11.36-6.96c-4.24-11.6-0.32-26-0.32-26
		c2.64-9.76,11.121-9.36,11.121-9.36c9.84-0.56,11.84,9.44,11.84,9.44s2.48,8.56-0.08,23.601
		C323.766,99.839,314.166,99.6,314.166,99.6z M313.206,55.039c-5.44,0.56-10.081-2.88-10.641-7.68c-0.48-4.72,3.44-9.12,8.8-9.68
		c5.28-0.56,10.08,2.88,10.56,7.68C322.406,50.078,318.486,54.479,313.206,55.039z"/>
	<path fill="#FFFFFF" d="M372.645,98.799c0.08,0-13.121,1.84-13.68-11.04c0,0-0.72-11.28-2.8-11.28c0.64,7.76,0.08,11.84,0.08,11.84
		s-0.88,10.56-11.92,10.72c-10.48,0.16-12.16-11.121-12.16-11.121s-1.92-7.12-0.96-18.4c0,0,0.96-12,11.68-12.64
		c9.36-0.56,11.6,3.36,13.04,5.84c0,0,25.681-15.601,28.001,17.28C383.926,79.999,385.366,96.56,372.645,98.799z"/>
	<path fill="#FFFFFF" d="M394.94,107.84c2.32-5.12,9.6-4,9.6-4c9.441-0.4,8.881-6.08,8.881-6.08s-13.68,3.44-21.36-4.72
		c-4.72-4.96-6.24-14.32-3.92-20.96c2.88-8,8.56-11.36,8.56-11.36c10.561-6.24,24.721-3.28,31.761,3.36
		c12.001,11.36,7.12,34.801,7.12,34.801c-5.119,29.041-34.4,20.8-34.4,20.8C390.62,115.92,394.94,107.84,394.94,107.84z
		 M409.181,81.039c0.16,2.24,1.439,2.96,3.2,2.96c1.76,0,3.12-1.12,3.12-2.96c0-1.68-1.12-3.36-3.12-3.36
		C410.54,77.679,409.02,79.359,409.181,81.039z"/>
	<path fill="#FFFFFF" d="M479.86,86.399c0,14-17.44,14.48-17.44,14.48c-23.681,0.96-22.48-9.68-22.48-9.68
		c-0.4-10.64,15.2-10.56,15.2-10.56c-14.32-3.36-13.68-11.68-13.68-11.68c0.639-13.601,20.48-13.121,20.48-13.121
		c14.96,0.32,17.84,4.48,17.6,9.68c-0.479,9.6-17.12,7.44-17.12,7.44C481.06,75.279,479.86,86.399,479.86,86.399z"/>
</g>
<g>
	<path fill="#FFCC00" d="M11.598,6.399c0.12,2.879,0.24,4.799,0.24,8.238c0,4.799-0.04,8.759-0.24,13.598
		c-0.12,2.52-0.8,2.68-1.84,2.68c-0.959,0-1.72-0.48-1.799-2.64c-0.16-3.879-0.2-8.318-0.2-15.197c0-2.919,0-5.079,0.12-6.679h-1.64
		C1.76,6.399,0,6.399,0,4.439c0-0.92,0.36-1.72,2.52-1.879c2.04-0.16,3.04-0.2,5.279-0.2c3.12,0,5.799,0.04,8.918,0.2
		c2.52,0.16,2.68,0.84,2.68,1.879c0,0.96-0.48,1.64-2.64,1.76C15.277,6.279,13.598,6.359,11.598,6.399z"/>
	<path fill="#FFCC00" d="M26.227,15.717c0,0.2-0.04,9.238-0.28,12.558c-0.16,2.28-0.52,2.32-1.319,2.32c-1.76,0-2-0.2-2.2-2.2
		c-0.2-2.08-0.32-7.439-0.32-12.358c0-4.919,0.12-11.558,0.28-13.478c0.12-1.4,0.32-2.56,1.72-2.56c1.04,0,1.8,0.6,1.879,2.679
		c0.08,1.84,0.2,5.399,0.24,9.519c1.479-1.2,4.439-2.04,6.559-2.04c2.56,0,4.479,1.24,5.599,3.479c0.72,1.439,1.08,3.199,1.24,5.119
		c0.12,1.72,0.16,3.079,0.16,6.239c0,3.239,0,5.559-1.959,5.559c-1.4,0-2.04-1.04-2.04-2.24c0-0.16-0.04-4.839-0.12-6.599
		c-0.08-1.72-0.32-4.12-0.92-5.599c-0.72-1.76-1.92-2.04-3.2-2.04C29.586,14.078,28.187,14.717,26.227,15.717z"/>
	<path fill="#FFCC00" d="M46.859,21.996c0.48,3.239,2.64,4.919,6.799,4.919c3.04,0,4.64-0.919,5.759-0.919c0.76,0,1.6,0.4,1.6,1.479
		c0,2.68-4.959,3.319-7.639,3.319c-6.239,0-10.798-3.479-10.798-10.278c0-6.639,4.359-10.318,10.159-10.318
		c4.519,0,8.758,2.279,8.758,7.119c0,4.279-3.319,5.839-8.358,5.839C51.298,23.156,49.259,22.956,46.859,21.996z M46.819,18.836
		c2,0.92,3.879,1.2,5.999,1.2c3.12,0,4.64-0.64,4.64-2.68c0-1.88-1.28-3.479-4.6-3.479C49.938,13.877,47.379,15.117,46.819,18.836z"
		/>
</g>
<g>
	<path opacity="0.5" fill="#FFFFFF" d="M312.981,121.118c0.68-1.44,2.36-2.041,3.761-2.041c2.42,0,4.321,1.76,4.321,4.981
		c0,3.081-1.84,5.221-5.281,5.221c-4.661,0-4.901-4.021-4.901-8.442c0-2.221,0.08-4.141,0.24-5.241c0.16-1.02,0.54-1.4,1.14-1.4
		c0.92,0,0.96,0.86,0.96,1.86C313.221,117.637,313.121,119.478,312.981,121.118z M313.241,124.319c0,2.02,1.08,3.101,2.76,3.101
		c1.38,0,3.041-0.74,3.041-3.201c0-2.201-1.34-3.161-2.861-3.161C314.641,121.058,313.241,122.038,313.241,124.319z"/>
	<path opacity="0.5" fill="#FFFFFF" d="M323.792,133.701c-0.36,0-0.84-0.26-0.84-0.68c0-0.8,1.28-3.181,2-4.721l0.14-0.3
		c-1.6-3.141-3.561-7.602-3.561-8.322c0-0.34,0.32-0.64,0.74-0.64c0.36,0,0.74,0.1,1.021,0.6c0.88,1.62,1.82,4.221,2.84,6.341
		c1.181-2.201,2.741-4.941,3.461-6.201c0.36-0.62,0.74-0.86,1.14-0.86c0.26,0,0.6,0.24,0.6,0.62c0,1.7-4.841,10.162-6.521,13.263
		C324.473,133.42,324.192,133.701,323.792,133.701z"/>
	<path opacity="0.5" fill="#FFFFFF" d="M337.192,120.418c0-3.781,0.04-5.321,1.02-5.321c0.46,0,0.88,0.16,0.94,1.24
		c0.1,1.9,0.12,2.861,0.12,4.861c0,2.401-0.02,4.261-0.12,6.682c-0.06,1.26-0.42,1.34-0.94,1.34c-0.48,0-0.88-0.24-0.92-1.32
		C337.212,125.959,337.192,123.858,337.192,120.418z"/>
	<path opacity="0.5" fill="#FFFFFF" d="M349.068,127.859c-0.66,0.82-1.681,1.46-3.301,1.46c-2.081,0-4.561-1.081-4.561-4.981
		c0-3.041,1.5-5.521,4.581-5.521c1.36,0,2.42,0.46,3.261,1.581c0-0.62,0.04-1.42,0.96-1.42c0.4,0,0.8,0.2,0.86,1.28
		c0.08,1.4,0.12,2.46,0.12,3.641c0,1.46-0.02,2.601-0.12,3.981c-0.08,1.22-0.4,1.34-0.8,1.34
		C349.228,129.22,349.108,128.6,349.068,127.859z M345.887,120.758c-1.94,0-2.681,1.44-2.681,3.361c0,2.32,1.1,3.44,2.861,3.44
		c2.06,0,2.92-1.54,2.92-3.42C348.988,121.358,347.127,120.758,345.887,120.758z"/>
	<path opacity="0.5" fill="#FFFFFF" d="M355.201,121.578c0,1.1,0,4.741-0.14,6.401c-0.1,1.06-0.24,1.16-0.86,1.16
		c-0.62,0-0.8-0.1-0.9-1.1c-0.1-0.96-0.16-3.401-0.16-5.061c0-1.36,0.04-2.141,0.14-2.801c0.16-1.12,0.4-1.28,0.86-1.28
		c0.66,0,0.98,0.36,1.06,1.2c0.98-0.86,2.161-1.4,3.341-1.4c1.14,0,2.14,0.521,2.74,1.701c0.36,0.72,0.541,1.6,0.62,2.561
		c0.06,0.86,0.08,1.54,0.08,3.121c0,1.72,0,3.041-1.04,3.041c-0.6,0-0.94-0.3-0.96-0.88c0-0.14-0.02-2.76-0.06-3.801
		c-0.04-0.86-0.16-2.06-0.46-2.8c-0.36-0.88-0.96-1.021-1.6-1.021C356.881,120.618,356.181,120.938,355.201,121.578z"/>
	<path opacity="0.5" fill="#FFFFFF" d="M370.38,127.479c3.681-0.42,3.781-0.521,4.681-0.521c0.6,0,0.88,0.26,0.88,0.86
		c0,1.36-4.621,1.521-5.461,1.521c-1.9,0-2.021-0.14-2.021-4.601c0-4.301,0.02-6.622,0.1-8.342c0.04-1.08,0.4-1.32,0.88-1.32
		c0.52,0,0.84,0.08,0.9,1.34c0.1,2.32,0.12,4.581,0.12,7.142C370.46,125.279,370.44,126.039,370.38,127.479z"/>
	<path opacity="0.5" fill="#FFFFFF" d="M379.607,116.357c0,0.64-0.64,1.18-1.3,1.18c-0.561,0-1.161-0.54-1.161-1.22
		c0-0.64,0.58-1.18,1.22-1.18C378.967,115.137,379.607,115.697,379.607,116.357z M377.366,124.119c0-3.781,0-5.361,0.98-5.361
		c0.46,0,0.84,0.2,0.9,1.28c0.08,1.4,0.12,2.741,0.12,4.061s-0.06,2.4-0.12,3.781c-0.06,1.26-0.38,1.34-0.9,1.34
		c-0.48,0-0.82-0.24-0.88-1.32C377.406,126.919,377.366,125.639,377.366,124.119z"/>
</g>
</svg>
